<svg xmlns="http://www.w3.org/2000/svg" x="0px" y="0px" width="32" height="32" viewBox="0,0,256,256" style="fill:#000000;">
  <g fill="#ffffff" fill-rule="nonzero" stroke="none" stroke-width="1" stroke-linecap="butt" stroke-linejoin="miter" stroke-miterlimit="10" stroke-dasharray="" stroke-dashoffset="0" font-family="none" font-weight="none" font-size="none" text-anchor="none" style="mix-blend-mode: normal">
    <g transform="scale(8,8)">
      <path d="M16,4c-5.11328,0 -9.38281,3.16016 -11.125,7.625l1.84375,0.75c1.45703,-3.73437 4.99219,-6.375 9.28125,-6.375c3.24219,0 6.13281,1.58984 7.9375,4h-3.9375v2h7v-7h-2v3.09375c-2.19141,-2.51172 -5.42969,-4.09375 -9,-4.09375zM25.28125,19.625c-1.45703,3.73438 -4.99219,6.375 -9.28125,6.375c-3.27734,0 -6.15625,-1.61328 -7.96875,-4h3.96875v-2h-7v7h2v-3.09375c2.1875,2.48047 5.39453,4.09375 9,4.09375c5.11328,0 9.38281,-3.16016 11.125,-7.625z"></path>
    </g>
  </g>
</svg>